<svg width="65" height="62" viewBox="0 0 65 62" fill="none" xmlns="http://www.w3.org/2000/svg">
<path d="M37.95 56.4074H20.2875C11.375 56.4074 4.125 48.9308 4.125 39.7398V23.9359C4.125 22.9047 4.9375 22.0797 5.925 22.0797C6.9125 22.0797 7.725 22.9176 7.725 23.9359V39.7527C7.725 46.8941 13.35 52.6949 20.275 52.6949H37.9375C38.9375 52.6949 39.7375 53.5328 39.7375 54.5512C39.75 55.5824 38.95 56.4074 37.95 56.4074Z" fill="#2D527C"/>
<path d="M48.4625 55.5824C47.7125 55.5824 47.025 55.1055 46.7625 54.332C46.4375 53.3652 46.925 52.3082 47.8625 51.9601C52.8875 50.1426 56.2625 45.2312 56.2625 39.7398V37.8707C56.2625 36.8394 57.075 36.0144 58.0625 36.0144C59.05 36.0144 59.8625 36.8523 59.8625 37.8707V39.7398C59.8625 46.8039 55.525 53.1332 49.05 55.4664C48.8625 55.5437 48.6625 55.5824 48.4625 55.5824Z" fill="#2D527C"/>
<path d="M58.5875 30.0719H5.4125C3.425 30.0719 1.8125 28.409 1.8125 26.3594C1.8125 24.3098 3.425 22.6469 5.4125 22.6469H58.6C60.5875 22.6469 62.2 24.3098 62.2 26.3594C62.2 28.409 60.5875 30.0719 58.5875 30.0719Z" fill="#CEE8FA"/>
<path d="M58.5875 31.9281H5.4125C2.425 31.9281 0 29.4274 0 26.3465C0 23.2656 2.425 20.7649 5.4125 20.7649H58.6C61.5875 20.7649 64.0125 23.2656 64.0125 26.3465C64.0125 29.4274 61.575 31.9281 58.5875 31.9281ZM5.4125 24.4903C4.4125 24.4903 3.6125 25.3281 3.6125 26.3465C3.6125 27.3649 4.425 28.2028 5.4125 28.2028H58.6C59.6 28.2028 60.4 27.3649 60.4 26.3465C60.4 25.3281 59.5875 24.4903 58.6 24.4903H5.4125Z" fill="#2D527C"/>
<path d="M14.2375 59.9008C15.9772 59.9008 17.3875 58.4464 17.3875 56.6523C17.3875 54.8582 15.9772 53.4039 14.2375 53.4039C12.4978 53.4039 11.0875 54.8582 11.0875 56.6523C11.0875 58.4464 12.4978 59.9008 14.2375 59.9008Z" fill="#CEE8FA"/>
<path d="M14.2375 61.7699C11.5 61.7699 9.27502 59.4754 9.27502 56.6523C9.27502 53.8293 11.5 51.5347 14.2375 51.5347C16.975 51.5347 19.2 53.8293 19.2 56.6523C19.2 59.4754 16.975 61.7699 14.2375 61.7699ZM14.2375 55.2601C13.4875 55.2601 12.8875 55.8918 12.8875 56.6523C12.8875 57.4129 13.5 58.0445 14.2375 58.0445C14.975 58.0445 15.5875 57.4129 15.5875 56.6523C15.5875 55.8918 14.9875 55.2601 14.2375 55.2601Z" fill="#2D527C"/>
<path d="M49.7626 59.9008C51.5022 59.9008 52.9126 58.4464 52.9126 56.6523C52.9126 54.8582 51.5022 53.4039 49.7626 53.4039C48.0229 53.4039 46.6125 54.8582 46.6125 56.6523C46.6125 58.4464 48.0229 59.9008 49.7626 59.9008Z" fill="#CEE8FA"/>
<path d="M49.7626 61.7699C47.025 61.7699 44.8 59.4754 44.8 56.6523C44.8 53.8293 47.025 51.5347 49.7626 51.5347C52.5001 51.5347 54.7251 53.8293 54.7251 56.6523C54.7251 59.4754 52.4876 61.7699 49.7626 61.7699ZM49.7626 55.2601C49.0125 55.2601 48.4125 55.8918 48.4125 56.6523C48.4125 57.4129 49.0251 58.0445 49.7626 58.0445C50.5001 58.0445 51.1125 57.4129 51.1125 56.6523C51.1125 55.8918 50.5001 55.2601 49.7626 55.2601Z" fill="#2D527C"/>
<path d="M40.425 9.43398H23.575C22.575 9.43398 21.775 8.59609 21.775 7.57773C21.775 6.55937 22.5875 5.72148 23.575 5.72148H40.4375C41.4375 5.72148 42.2375 6.55937 42.2375 7.57773C42.2375 8.59609 41.425 9.43398 40.425 9.43398Z" fill="#F0BF5F"/>
<path d="M41.0125 13.0562C40.0125 13.0562 39.2125 12.2183 39.2125 11.2V2.08631C39.2125 1.05506 40.025 0.230057 41.0125 0.230057C42 0.230057 42.8125 1.06795 42.8125 2.08631V11.2C42.8125 12.2312 42.0125 13.0562 41.0125 13.0562Z" fill="#F0BF5F"/>
<path d="M44.2625 3.95562H37.775C36.775 3.95562 35.975 3.11773 35.975 2.09937C35.975 1.08101 36.7875 0.24312 37.775 0.24312H44.2625C45.2625 0.24312 46.0625 1.08101 46.0625 2.09937C46.0625 3.11773 45.25 3.95562 44.2625 3.95562Z" fill="#F0BF5F"/>
<path d="M22.9875 13.0562C21.9875 13.0562 21.1875 12.2183 21.1875 11.2V2.08631C21.1875 1.05506 22 0.230057 22.9875 0.230057C23.975 0.230057 24.7875 1.06795 24.7875 2.08631V11.2C24.7875 12.2312 23.9875 13.0562 22.9875 13.0562Z" fill="#F0BF5F"/>
<path d="M26.225 3.95748H19.7375C18.7375 3.95748 17.9375 3.11959 17.9375 2.10123C17.9375 1.08287 18.75 0.244983 19.7375 0.244983H26.225C27.225 0.244983 28.025 1.08287 28.025 2.10123C28.025 3.11959 27.225 3.95748 26.225 3.95748Z" fill="#F0BF5F"/>
<path d="M32 17.3359C31 17.3359 30.2 16.498 30.2 15.4797V7.75818C30.2 6.72693 31.0125 5.90193 32 5.90193C32.9875 5.90193 33.7999 6.73982 33.7999 7.75818V15.4797C33.7999 16.498 33 17.3359 32 17.3359Z" fill="#F0BF5F"/>
<path d="M24.4625 41.1578H14.75C13.525 41.1578 12.525 40.1266 12.525 38.8633V22.6211H26.675V38.8633C26.675 40.1395 25.6875 41.1578 24.4625 41.1578Z" fill="#CEE8FA"/>
<path d="M24.4625 43.027H14.75C12.5375 43.027 10.725 41.1707 10.725 38.8762V22.634C10.725 21.6028 11.5375 20.7777 12.525 20.7777H26.675C27.675 20.7777 28.475 21.6156 28.475 22.634V38.8762C28.4875 41.1578 26.675 43.027 24.4625 43.027ZM14.3375 24.4902V38.8762C14.3375 39.1082 14.525 39.3016 14.75 39.3016H24.4625C24.6875 39.3016 24.875 39.1082 24.875 38.8762V24.4902H14.3375Z" fill="#2D527C"/>
</svg>
